# xmcd CD database file
#
# Track frame offsets:
#	150
#	18702
#	38676
#	56576
#	83165
#	105487
#	128829
#	130314
#	147563
#	170075
#	189682
#	210679
#
# Disc length: 2863 seconds
#
# Revision: 3
# Processed by: cddbd v1.5PL3 Copyright (c) Steve Scherf et al.
# Submitted via: CDex 1.51
#
DISCID=b00b2d0c
DTITLE=Every Little Thing - everlasting
DYEAR=1997
DGENRE=JPop
TTITLE0=Future World
TTITLE1=Feel My Heart (Album Mix)
TTITLE2=Here and everywhere
TTITLE3=Season (Album Version)
TTITLE4=二人で時代を変えてみたい
TTITLE5=たとえ遠く離れていても…
TTITLE6=micro stress
TTITLE7=Dear My Friend (Album Mix)
TTITLE8=Looking Back On Your Love
TTITLE9=Never Stop!
TTITLE10=I'll get over you
TTITLE11=Double Moon
EXTD=YEAR: 1997
EXTT0=
EXTT1=
EXTT2=
EXTT3=
EXTT4=
EXTT5=
EXTT6=
EXTT7=
EXTT8=
EXTT9=
EXTT10=
EXTT11=
PLAYORDER=
